# xmcd
#
# Track frame offsets: 
#        150
#        17624
#        34150
#        43010
#        54270
#        64506
#        73357
#        90316
#        109492
#        124841
#        138682
#        153599
#        167887
#        188052
#        205723
#        219669
#        240207
#        255742
#        271431
#        284337
#
# Disc length: 3979 seconds
#
# Revision: 0
# Processed by: cddbd v1.5.2PL0 Copyright (c) Steve Scherf et al.
# Submitted via: ExactAudioCopy v1.1
#
DISCID=280f8914
DTITLE=Various Artist - Radio 2 - 100 Kerstklassiekers - CD 3
DYEAR=2008
DGENRE=Chorus
TTITLE0=Cliff Richard - Mistletoe and Wine
TTITLE1=Shakin' Stevens - Merry Christmas Everyone
TTITLE2=The Platters - Blue Christmas
TTITLE3=Andy Williams - It's The Most Wonderful Time Of The Year
TTITLE4=Imagination - The Christmas Song
TTITLE5=Nat "King" Cole - Caroling, Caroling
TTITLE6=Gary Glitter - Another Rock 'n' Roll Christmas
TTITLE7=Britney Spears - My Only Wish (This Year)
TTITLE8=Eartha Kitt - Santa Baby
TTITLE9=Bobby Vinton - The Christmas Tree
TTITLE10=New Kids On The Block - I Still Believe In Santa Claus
TTITLE11=Jeff Beck - Amazing Grace
TTITLE12=André Rieu - Medley Nu Zijt Wellekome - De Herdertjes Lagen B
TTITLE12=ij Nachte - Er Is Een Kindke Geboren
TTITLE13=Mahalia Jackson - O Little Town Of Bethlehem
TTITLE14=Love Unlimited - It May Be Winter Outside (But In My Heart It
TTITLE14='s Spring)
TTITLE15=Vanessa Williams - Have Yourself A Merry Little Christmas
TTITLE16=Toni Braxton - The Christmas Song (Chestnuts Roasting On An O
TTITLE16=pen Fire)
TTITLE17=Whitney Houston - Who Would Imagine A King
TTITLE18=Diana Ross and The Supremes - What The World Needs Now
TTITLE19=Tino Rossi - Petit Papa Noël
EXTD=
EXTT0=
EXTT1=
EXTT2=
EXTT3=
EXTT4=
EXTT5=
EXTT6=
EXTT7=
EXTT8=
EXTT9=
EXTT10=
EXTT11=
EXTT12=
EXTT13=
EXTT14=
EXTT15=
EXTT16=
EXTT17=
EXTT18=
EXTT19=
PLAYORDER=
